<?xml version="1.0" encoding="utf-8"?>
<!-- Generator: Adobe Illustrator 26.1.0, SVG Export Plug-In . SVG Version: 6.00 Build 0)  -->
<svg version="1.1" id="Layer_1" xmlns="http://www.w3.org/2000/svg" xmlns:xlink="http://www.w3.org/1999/xlink" x="0px" y="0px"
	 viewBox="0 0 24 24" style="enable-background:new 0 0 24 24;" xml:space="preserve">
<style type="text/css">
	.st0{fill:#FFFFFF;}
</style>
<path id="形状" class="st0" d="M19.6,5.4c0.5,0,0.9,0.4,0.9,0.9s-0.4,0.9-0.9,0.9h-0.9l0,0.1l0,0l-0.9,12.4
	c-0.1,1-0.9,1.8-1.9,1.8H8.2c-1,0-1.8-0.8-1.9-1.8L5.4,7.3c0,0,0,0,0-0.1H4.4c-0.5,0-0.9-0.4-0.9-0.9s0.4-0.9,0.9-0.9H19.6z
	 M16.7,7.3H7.3l0.9,12.3h7.7L16.7,7.3z M13.9,2.6c0.5,0,0.9,0.4,0.9,0.9s-0.4,0.9-0.9,0.9h-3.8C9.6,4.4,9.2,4,9.2,3.5
	s0.4-0.9,0.9-0.9H13.9z"/>
</svg>
